<svg id="svg5223" xmlns="http://www.w3.org/2000/svg" viewBox="0 0 268.09 413.43"><g id="layer1"><g id="g5975"><path id="skin" d="M255.83,303a23.9,23.9,0,0,1-26.2,12.7,14.85,14.85,0,0,1-11.4-17.6,15.82,15.82,0,0,1,1.6-4.3,23.9,23.9,0,0,1,26.2-12.7,14.85,14.85,0,0,1,11.4,17.6A13.88,13.88,0,0,1,255.83,303Z" transform="translate(0 0)" style="fill:#e4d3b1;stroke:#000;stroke-linecap:round;stroke-linejoin:round;stroke-width:3.6500000953674316px;fill-rule:evenodd"/><path id="hair1" d="M212.93,43.26s50.4,69.4,29.3,148.6c-10.1,38-95.1,47.4-95.1,47.4l7.3-174.1" transform="translate(0 0)" style="fill:#322b2a;stroke:#000;stroke-miterlimit:3.200000047683716;stroke-width:3.668100118637085px"/><path id="t-shirt1" d="M196.83,301.46c3,8,60.4-13.1,57.5-22.2-27.1-116.7-53.3-106.5-63.6-104.2C175.63,186.76,180,227.26,196.83,301.46Z" transform="translate(0 0)" style="fill:#246671;stroke:#000;stroke-miterlimit:3.200000047683716;stroke-width:3.6500000953674316px"/><path id="rect3252-6-7-2-7-1-6-3-5-6-6" d="M144.63,290.56h3.1c48.1,0,87.4,13.8,87.4,30.9V372c0,17.1-39,30.9-87.4,30.9h-3.1c-48.1,0-87.4-13.9-87.4-30.9v-50.5C57.33,304.36,96.43,290.56,144.63,290.56Z" transform="translate(0 0)" style="fill:#fff;stroke:#000;stroke-linecap:round;stroke-linejoin:round;stroke-width:3.6500000953674316px;fill-rule:evenodd"/><path id="path3928-9-81-8-0-49-3-5-5-2" d="M184.23,397.06l-.7-35.7" transform="translate(0 0)" style="fill:#fff;stroke:#000;stroke-linecap:round;stroke-linejoin:round;stroke-width:3.9677000045776367px"/><path id="t-shirt2" d="M154.53,156.76h-2.3c-20.8.7-40.5,13.7-53.8,30.3-28.7,35.5-40.6,82.8-42.8,128.3.4,11.7-2.1,25.7,2.2,36,16.4,11.3,45.6,13.9,65.6,17,5.3.3,13.7.7,22.9.9h3.1c9.2,0,17.5.3,22.9,0,20.1-2.1,49.5-3.2,66.4-13.8,4.9-10,3.1-24.1,4.4-35.8.4-45.7-8.7-93.4-35.5-130.2-12.4-17.5-31.3-31.2-52-32.9h-.8Z" transform="translate(0 0)" style="fill:#246671;stroke:#000;stroke-linecap:round;stroke-linejoin:round;stroke-width:3.6500000953674316px;fill-rule:evenodd"/><path id="shoe1" d="M266.23,394s-4.8-22.9-35-20.2c-40.5,3.6-41.6,26.7-41.6,26.7C187.23,407.56,268.33,403.36,266.23,394Z" transform="translate(0 0)" style="fill:#2c3873;stroke:#000;stroke-miterlimit:3.200000047683716;stroke-width:3.6500000953674316px"/><path id="skin2" d="M46.53,327.36a24.17,24.17,0,0,0,28.1,8.1,14.79,14.79,0,0,0,8.3-19.2h0a15.47,15.47,0,0,0-2.3-3.9,23.94,23.94,0,0,0-28.2-8.1,14.77,14.77,0,0,0-8.13,19.23l0,.07A13,13,0,0,0,46.53,327.36Z" transform="translate(0 0)" style="fill:#e4d3b1;stroke:#000;stroke-linecap:round;stroke-linejoin:round;stroke-width:3.6500000953674316px;fill-rule:evenodd"/><path id="skin3" d="M133.73,10.36h9.4c57.8,0,104.9,40.6,104.9,90.8v6.2c0,50.1-46.9,90.8-104.9,90.8h-9.4c-57.9,0-104.9-40.6-104.9-90.8v-6.2C28.93,51,75.83,10.36,133.73,10.36Z" transform="translate(0 0)" style="fill:#e4d3b1;stroke:#000;stroke-linecap:round;stroke-linejoin:bevel;stroke-width:3.6500000953674316px;fill-rule:evenodd"/><path id="shoe2" d="M66.13,401.46s3.4-28.7,46.6-26.7c58.1,2.6,63.2,31.2,63.2,31.2C180.33,414.76,64.63,413.26,66.13,401.46Z" transform="translate(0 0)" style="fill:#2c3873;stroke:#000;stroke-miterlimit:3.200000047683716;stroke-width:3.6500000953674316px"/><g id="mouth"><path id="path590-4-2-7-8" d="M225.73,128.06s-4.8,34.5-30.6,38.2-41.1-27.9-41.1-27.9Z" transform="translate(0 0)" style="fill:#b66b6f;stroke:#000;stroke-linecap:round;stroke-linejoin:bevel;stroke-width:3.128700017929077px"/></g><g id="g456-8-2-13-9"><path id="eye-left" d="M163.13,112.16a7.91,7.91,0,1,1,0-.2" transform="translate(0 0)" style="fill:#231f20"/></g><g id="g456-8-2-13-9-2" data-name="g456-8-2-13-9"><path id="eye-left-2" data-name="eye-left" d="M232.56,104.36a7.91,7.91,0,1,1,0-.2" transform="translate(0 0)" style="fill:#231f20"/></g><path id="path4494-63-0-5-8-9" d="M69.23,136.86a8.68,8.68,0,0,1-11.5-1.8A10,10,0,0,1,57,121l.4-.4a11.41,11.41,0,0,1,8.7-2.5" transform="translate(0 0)" style="fill:none;stroke:#000;stroke-linecap:round;stroke-linejoin:round;stroke-width:4.851900100708008px"/><path id="hair2" d="M150,1.56a157.28,157.28,0,0,0-16.8,1l-10,1.4c-40.7,5.3-73.6,28.4-89.6,58.8l-1-.4s-34.4,69.5-30.8,151.7c2.5,59.6,81.7,33,81.7,33,2.2-48.7-19.2-88.6-.3-143.5l173.4-22.3C248.53,34.66,203.43,1.56,150,1.56Z" transform="translate(0 0)" style="fill:#322b2a;stroke:#000002;stroke-linecap:round;stroke-linejoin:bevel;stroke-width:3.1285998821258545px;fill-rule:evenodd"/><path id="t-shirt3" d="M90.73,314.16c-2.5,8.7-69.6-6.3-67.4-16.2,17.5-125.7,48.3-118,60-117,18.8,4,17.9,53.1,7.4,133.2Z" transform="translate(0 0)" style="fill:#246671;stroke:#000;stroke-miterlimit:3.200000047683716;stroke-width:3.6500000953674316px"/></g></g></svg>