<?xml version="1.0" encoding="UTF-8" standalone="no"?>
<!-- Created with Inkscape (http://www.inkscape.org/) -->

<svg
   xmlns:dc="http://purl.org/dc/elements/1.1/"
   xmlns:cc="http://creativecommons.org/ns#"
   xmlns:rdf="http://www.w3.org/1999/02/22-rdf-syntax-ns#"
   xmlns:svg="http://www.w3.org/2000/svg"
   xmlns="http://www.w3.org/2000/svg"
   xmlns:sodipodi="http://sodipodi.sourceforge.net/DTD/sodipodi-0.dtd"
   xmlns:inkscape="http://www.inkscape.org/namespaces/inkscape"
   width="21.807848mm"
   height="33.483238mm"
   viewBox="0 0 77.271902 118.64139"
   id="svg5223"
   version="1.1"
   inkscape:version="0.91 r13725"
   sodipodi:docname="mix-and-match-characters16.svg">
  <defs
     id="defs5225" />
  <sodipodi:namedview
     id="base"
     pagecolor="#ffffff"
     bordercolor="#666666"
     borderopacity="1.0"
     inkscape:pageopacity="0.0"
     inkscape:pageshadow="2"
     inkscape:zoom="0.98994949"
     inkscape:cx="44.247096"
     inkscape:cy="188.57398"
     inkscape:document-units="px"
     inkscape:current-layer="layer1"
     showgrid="false"
     fit-margin-top="0"
     fit-margin-left="0"
     fit-margin-right="0"
     fit-margin-bottom="0"
     inkscape:window-width="1615"
     inkscape:window-height="1026"
     inkscape:window-x="1985"
     inkscape:window-y="24"
     inkscape:window-maximized="1" />
  <metadata
     id="metadata5228">
    <rdf:RDF>
      <cc:Work
         rdf:about="">
        <dc:format>image/svg+xml</dc:format>
        <dc:type
           rdf:resource="http://purl.org/dc/dcmitype/StillImage" />
        <dc:title></dc:title>
      </cc:Work>
    </rdf:RDF>
  </metadata>
  <g
     inkscape:label="Layer 1"
     inkscape:groupmode="layer"
     id="layer1"
     transform="translate(-226.08218,-540.07185)">
    <g
       transform="translate(-94.331638,85.64033)"
       id="g5975">
      <path
         id="skin"
         d="m 393.61607,541.08837 c -1.30071,2.7247 -4.66812,4.35654 -7.52136,3.64482 -2.85324,-0.71172 -4.11181,-3.49748 -2.81111,-6.22218 1.30071,-2.72471 4.66812,-4.35655 7.52137,-3.64483 2.85324,0.71173 4.1118,3.49749 2.8111,6.22219 z"
         inkscape:connector-curvature="0"
         style="fill:#e4d3b1;fill-rule:evenodd;stroke:#000000;stroke-width:1.79010785;stroke-linecap:round;stroke-linejoin:round" />
      <path
         id="hair1"
         d="m 381.3317,466.79 c 0,0 14.423,19.849 8.3856,42.54 -2.8919,10.87 -27.215,13.563 -27.215,13.563 l 2.0858,-49.799"
         inkscape:connector-curvature="0"
         style="fill:#322b2a;stroke:#000000;stroke-width:1.04939997" />
      <path
         id="t-shirt1"
         d="m 376.7317,540.64 c 0.85825,2.2748 17.268,-3.7222 16.446,-6.3367 -7.7437,-33.351 -15.305,-30.425 -18.197,-29.778 -4.3242,3.3367 -3.0496,14.849 1.7504,36.114 z"
         inkscape:connector-curvature="0"
         style="fill:#246671;stroke:#000000;stroke-width:1.42690003" />
      <rect
         id="rect3252-6-7-2-7-1-6-3-5-6-6"
         rx="24.969999"
         ry="8.8413095"
         transform="matrix(1,-7.6208e-5,0.0014447,0.99999896,0,0)"
         width="50.813"
         y="537.58051"
         x="336.04251"
         height="32.128033"
         style="fill:#ffffff;fill-rule:evenodd;stroke:#000000;stroke-width:1.7112;stroke-linecap:round;stroke-linejoin:round" />
      <path
         id="path3928-9-81-8-0-49-3-5-5-2"
         d="m 373.1317,568.03 -0.25901,-10.194"
         inkscape:connector-curvature="0"
         style="fill:#ffffff;stroke:#000000;stroke-width:1.13510001;stroke-linecap:round;stroke-linejoin:round" />
      <path
         id="t-shirt2"
         d="m 364.6417,499.28 c -0.0888,-8.2e-4 -0.17801,8.9e-4 -0.26669,0 -0.0503,0 -0.10067,-0.009 -0.15103,-0.009 -0.0776,0 -0.1569,0 -0.23473,-0.009 l 0,0.0205 c -5.9566,0.20874 -11.574,3.918 -15.403,8.6785 -8.2054,10.135 -11.608,23.659 -12.244,36.7 0.1132,3.3513 -0.60801,7.3538 0.62034,10.287 4.6728,3.2567 13.055,3.9826 18.758,4.8535 1.5171,0.10934 3.9292,0.18698 6.5483,0.26511 l 0,0.009 c 0.275,0.009 0.53655,0.009 0.80764,0.0152 l 0.0795,0 c 2.62,0.0465 5.0334,0.0832 6.5546,0.0465 5.7448,-0.59835 14.156,-0.9246 19.007,-3.9546 1.3926,-2.8704 0.8989,-6.9019 1.2015,-10.243 0.10293,-13.053 -2.5301,-26.721 -10.151,-37.233 -3.5546,-4.9362 -8.9548,-8.9078 -14.892,-9.3996 l 0,-0.0296 c -0.0777,0 -0.15696,-0.009 -0.23467,-0.009 z"
         inkscape:connector-curvature="0"
         style="fill:#246671;fill-rule:evenodd;stroke:#000000;stroke-width:1.71730006;stroke-linecap:round;stroke-linejoin:round" />
      <path
         id="shoe1"
         d="m 396.5817,567.14 c 0,0 -1.3827,-6.5414 -9.9894,-5.774 -11.578,1.0323 -11.909,7.6247 -11.909,7.6247 -0.67864,2.0422 22.476,0.82265 21.898,-1.8507 z"
         inkscape:connector-curvature="0"
         style="fill:#2c3873;stroke:#000000;stroke-width:1.79009998" />
      <path
         id="skin2"
         d="m 333.7394,548.08804 c 1.74058,2.46701 5.33459,3.509 8.02747,2.32735 2.69288,-1.18165 3.46485,-4.13945 1.72427,-6.60646 -1.74058,-2.467 -5.33459,-3.50899 -8.02747,-2.32735 -2.69288,1.18165 -3.46485,4.13945 -1.72427,6.60646 z"
         inkscape:connector-curvature="0"
         style="fill:#e4d3b1;fill-rule:evenodd;stroke:#000000;stroke-width:1.7901212;stroke-linecap:round;stroke-linejoin:round" />
      <rect
         id="skin3"
         rx="29.983999"
         ry="25.957001"
         height="53.703999"
         width="62.653999"
         y="457.39999"
         x="328.70169"
         style="fill:#e4d3b1;fill-rule:evenodd;stroke:#000000;stroke-width:1.79009998;stroke-linecap:round;stroke-linejoin:bevel" />
      <path
         id="shoe2"
         d="m 339.3217,569.29 c 0,0 0.97136,-8.2011 13.324,-7.6465 16.617,0.74602 18.09,8.9309 18.09,8.9309 1.2752,2.5087 -31.829,2.0677 -31.414,-1.2844 z"
         inkscape:connector-curvature="0"
         style="fill:#2c3873;stroke:#000000;stroke-width:1.79009998" />
      <g
         id="mouth"
         transform="matrix(0.38156,-0.054893,-0.054893,-0.38156,385.0017,491.07)"
         style="fill:#b66b6f;stroke:#000000;stroke-width:2.32189989;stroke-linecap:round;stroke-linejoin:bevel">
        <path
           id="path590-4-2-7-8"
           d="M 0,0 C 0,0 -7.141,-24.844 -26.332,-24.844 -45.523,-24.844 -53.557,0 -53.557,0 L 0,0 Z"
           inkscape:connector-curvature="0"
           style="fill:#b66b6f;stroke:#000000;stroke-width:2.32189989;stroke-linecap:round;stroke-linejoin:bevel" />
      </g>
      <g
         id="g456-8-2-13-9"
         transform="matrix(0.48957,-0.10822,-0.10822,-0.48957,367.0717,486.52)">
        <path
           id="eye-left"
           d="m 0,0 c 0,-2.958 -2.396,-5.355 -5.355,-5.355 -2.958,0 -5.356,2.397 -5.356,5.355 0,2.957 2.398,5.356 5.356,5.356 C -2.396,5.356 0,2.957 0,0"
           inkscape:connector-curvature="0"
           style="fill:#231f20" />
      </g>
      <g
         id="g456-1-7-94-6"
         transform="matrix(0.50139,0,0,-0.50139,388.7017,484.93)">
        <path
           id="eye-right"
           d="m 0,0 c 0,-2.958 -2.396,-5.355 -5.355,-5.355 -2.958,0 -5.356,2.397 -5.356,5.355 0,2.957 2.398,5.356 5.356,5.356 C -2.396,5.356 0,2.957 0,0"
           inkscape:connector-curvature="0"
           style="fill:#231f20" />
      </g>
      <path
         id="path4494-63-0-5-8-9"
         d="m 340.23069,493.56612 c -0.85995,0.77832 -2.38078,0.44354 -3.30959,-0.50511 -1.27961,-1.30693 -1.17494,-3.19821 -0.0738,-4.17106 0.64175,-0.56689 1.55885,-0.81254 2.51068,-0.71921"
         inkscape:connector-curvature="0"
         style="fill:none;stroke:#000000;stroke-width:1.38804758;stroke-linecap:round;stroke-linejoin:round" />
      <path
         id="hair2"
         d="m 363.3417,454.88 c -1.5794,5.3e-4 -3.1909,0.0989 -4.811,0.30763 l -2.881,0.39158 c -11.612,1.496 -21.036,8.1092 -25.593,16.81 l -0.30768,-0.11186 c 0,0 -9.8508,19.897 -8.8107,43.354 0.75749,17.085 23.383,9.482 23.383,9.482 0.63288,-13.937 -5.4927,-25.342 -0.0839,-41.061 l 49.62,-6.3773 c -2.3268,-13.349 -15.248,-22.801 -30.516,-22.796 z"
         inkscape:connector-curvature="0"
         style="fill:#322b2a;fill-rule:evenodd;stroke:#000002;stroke-width:0.89506;stroke-linecap:round;stroke-linejoin:bevel" />
      <path
         id="t-shirt3"
         d="m 346.3717,544.3 c -0.71096,2.4918 -19.905,-1.8054 -19.274,-4.6493 4.9625,-35.945 13.826,-33.794 17.161,-33.466 5.3904,1.1666 5.1215,15.213 2.1125,38.116 z"
         inkscape:connector-curvature="0"
         style="fill:#246671;stroke:#000000;stroke-width:1.5618" />
    </g>
  </g>
</svg>
